<?xml version="1.0" encoding="UTF-8" standalone="no"?>
<!-- Created with Inkscape (http://www.inkscape.org/) -->

<svg
   width="210mm"
   height="297mm"
   viewBox="0 0 210 297"
   version="1.1"
   id="svg5"
   sodipodi:docname="pasieka-logo_wektorowe.svg"
   inkscape:version="1.2 (dc2aedaf03, 2022-05-15)"
   inkscape:export-filename="..\pasieka-logo_wektorowe.png"
   inkscape:export-xdpi="96"
   inkscape:export-ydpi="96"
   xmlns:inkscape="http://www.inkscape.org/namespaces/inkscape"
   xmlns:sodipodi="http://sodipodi.sourceforge.net/DTD/sodipodi-0.dtd"
   xmlns:xlink="http://www.w3.org/1999/xlink"
   xmlns="http://www.w3.org/2000/svg"
   xmlns:svg="http://www.w3.org/2000/svg">
  <sodipodi:namedview
     id="namedview7"
     pagecolor="#ffffff"
     bordercolor="#999999"
     borderopacity="1"
     inkscape:showpageshadow="0"
     inkscape:pageopacity="0"
     inkscape:pagecheckerboard="0"
     inkscape:deskcolor="#d1d1d1"
     inkscape:document-units="mm"
     showgrid="false"
     inkscape:zoom="0.46769781"
     inkscape:cx="44.900788"
     inkscape:cy="628.61103"
     inkscape:window-width="1366"
     inkscape:window-height="705"
     inkscape:window-x="-8"
     inkscape:window-y="-8"
     inkscape:window-maximized="1"
     inkscape:current-layer="layer1" />
  <defs
     id="defs2" />
  <g
     inkscape:label="Warstwa 1"
     inkscape:groupmode="layer"
     id="layer1"
     style="display:inline;fill:#808000">
    <path
       d="m 209.88014,156.70314 a 100.697,100.697 0 0 1 -100.697,100.697 A 100.697,100.697 0 0 1 8.4857129,156.70314 100.697,100.697 0 0 1 109.18314,56.005743 100.697,100.697 0 0 1 209.88014,156.70314 Z"
       style="fill:none;stroke:#e16e01;stroke-width:3;stroke-linecap:square;stroke-linejoin:round;paint-order:markers fill stroke"
       id="path3572" />
    <rect
       style="fill:#00aa44;fill-opacity:1;stroke:none;stroke-width:1.68861;stroke-linecap:square;stroke-linejoin:round;paint-order:markers fill stroke"
       id="rect61"
       width="101.6844"
       height="58.551434"
       x="56.28857"
       y="95.322861" />
    <rect
       style="display:inline;fill:#00aa44;fill-opacity:1;stroke:none;stroke-width:1.60497;stroke-linecap:square;stroke-linejoin:round;paint-order:markers fill stroke"
       id="rect61-7"
       width="101.68439"
       height="52.894283"
       x="56.360661"
       y="156.27856" />
    <rect
       style="fill:#000000;fill-opacity:1;stroke:none;stroke-width:3.74165;stroke-linecap:square;stroke-linejoin:round;stroke-dasharray:none;stroke-opacity:1;paint-order:markers fill stroke"
       id="rect5733"
       width="101.82857"
       height="15.839999"
       x="56.005714"
       y="77.502861" />
    <rect
       style="fill:#000000;fill-opacity:1;stroke:none;stroke-width:3.31302;stroke-linecap:square;stroke-linejoin:round;stroke-dasharray:none;stroke-opacity:1;paint-order:markers fill stroke"
       id="rect7354"
       width="3.3942857"
       height="28.976917"
       x="62.365833"
       y="211.50853" />
    <rect
       style="display:inline;fill:#000000;fill-opacity:1;stroke:none;stroke-width:3.31302;stroke-linecap:square;stroke-linejoin:round;stroke-dasharray:none;stroke-opacity:1;paint-order:markers fill stroke"
       id="rect7354-6"
       width="3.3942857"
       height="28.976917"
       x="147.65143"
       y="211.79726" />
    <text
       xml:space="preserve"
       style="font-style:normal;font-weight:normal;font-size:30.2259px;line-height:1.25;font-family:sans-serif;letter-spacing:1.36016613px;fill:#000000;fill-opacity:1;stroke:none;stroke-width:0.265;stroke-dasharray:none"
       id="text9621"
       transform="matrix(-0.72310406,-0.9150416,0.9273329,-0.7103545,49.866565,372.9328)"
       inkscape:transform-center-x="-80.828695"
       inkscape:transform-center-y="51.703497"
       inkscape:export-filename="..\text9621.png"
       inkscape:export-xdpi="96"
       inkscape:export-ydpi="96"><textPath
         xlink:href="#path3572"
         id="textPath11125"
         style="font-style:normal;font-variant:normal;font-weight:bold;font-stretch:normal;font-size:30.2259px;font-family:sans-serif;-inkscape-font-specification:'sans-serif Bold';stroke-width:0.265;stroke-dasharray:none">Pasieka</textPath></text>
    <g
       aria-label="Bzdula"
       id="text15691"
       style="font-size:35.2778px;line-height:1.25;letter-spacing:1.5875px;fill:#000000;stroke-width:0.264583"
       transform="rotate(50.277667,84.477103,168.16173)">
      <path
         d="m 139.865,237.596 6.111,-2.652 c 2.984,-1.5 4.915,-2.032 6.873,-2.058 1.978,-0.038 3.185,1.122 4.454,3.129 0.766,1.213 1.125,2.419 1.076,3.618 -0.029,1.187 -0.532,2.138 -1.513,2.935 l 0.086,0.154 c 0.809,-0.242 1.614,-0.346 2.416,-0.313 0.811,0.001 1.646,0.162 2.411,0.625 0.765,0.462 1.5,1.25 2.203,2.363 1.219,1.928 1.076,4.182 0.259,6.13 -0.796,1.936 -2.992,3.928 -5.534,5.206 l -9.774,4.36 z m 8.412,7.282 2.719,-1.283 c 1.387,-0.698 2.237,-1.388 2.551,-2.073 0.324,-0.716 0.085,-1.447 -0.39,-2.286 -0.475,-0.839 -0.833,-1.402 -1.654,-1.464 -0.82,-0.061 -1.913,0.252 -3.279,0.938 l -2.219,1.04 z m 1.715,3.87 2.658,5.999 3.541,-1.683 c 1.429,-0.718 2.663,-1.677 2.914,-2.522 0.24,-0.865 0.106,-1.748 -0.404,-2.649 -0.463,-0.819 -1.12,-1.312 -1.971,-1.479 -0.842,-0.199 -2.131,0.107 -3.644,0.867 z"
         style="font-weight:bold;-inkscape-font-specification:'sans-serif Bold'"
         id="path17948" />
      <path
         d="m 185.349,238.162 -13.237,10.634 -1.784,-2.539 0.018,-15.18 -6.564,4.948 -2.312,-3.29 10.543,-8.474 2.328,2.508 0.93,14.745 7.342,-6.3 z"
         style="font-weight:bold;-inkscape-font-specification:'sans-serif Bold'"
         id="path17950" />
      <path
         d="m 194.671,228.877 c -1.377,1.638 -3.63,2.854 -5.782,2.718 -2.153,-0.17 -4.573,-1.268 -6.913,-3.551 -2.357,-2.299 -3.686,-4.475 -4,-6.627 -0.313,-2.152 0.077,-3.8 1.499,-5.492 0.892,-1.063 1.719,-1.66 2.7,-2.021 0.98,-0.36 1.86,-0.423 2.809,-0.351 l 0.107,-0.141 c -0.342,-0.171 -0.823,-0.433 -1.442,-0.785 -0.637,-0.366 -1.256,-0.776 -1.855,-1.231 l -4.916,-3.734 2.763,-3.869 21.933,15.416 -2.312,3.289 -2.9,-0.305 -0.128,0.168 c 0.324,0.896 0.264,2.099 0.162,3.131 -0.121,1.018 -0.833,2.322 -1.725,3.385 z m -1.889,-4.286 c 0.895,-1.121 1.33,-2.35 1.011,-3.33 -0.338,-0.995 -1.176,-2.03 -2.514,-3.106 l -0.45,-0.341 c -1.479,-1.124 -2.79,-1.75 -3.933,-1.879 -1.146,-0.163 -2.174,0.32 -3.143,1.533 -0.719,0.9 -0.868,1.838 -0.546,3.001 0.305,1.148 1.162,2.344 2.572,3.59 1.41,1.245 2.695,1.94 3.853,2.085 1.141,0.129 2.401,-0.616 3.15,-1.553 z"
         style="font-weight:bold;-inkscape-font-specification:'sans-serif Bold'"
         id="path17952" />
      <path
         d="m 196.4,187.456 17.969,6.935 -1.448,3.751 -2.783,0.244 -0.114,0.258 c 0.655,0.959 0.968,2.024 0.938,3.194 -0.02,1.148 -0.584,2.856 -1.123,3.928 -0.929,1.849 -2.495,3.628 -4.07,4.169 -1.597,0.529 -3.469,0.186 -5.619,-1.029 l -10.93,-6.182 2.384,-4.35 10.054,5.055 c 1.239,0.623 2.285,0.873 3.137,0.749 0.831,-0.135 1.49,-0.686 1.976,-1.652 0.718,-1.429 0.805,-3.089 0.055,-4.064 -0.773,-0.986 -2.094,-1.893 -3.965,-2.721 l -8.288,-3.673 z"
         style="font-weight:bold;-inkscape-font-specification:'sans-serif Bold'"
         id="path17954" />
      <path
         d="m 218.444,180.711 -1.478,5.713 -25.832,-7.168 1.159,-4.442 z"
         style="font-weight:bold;-inkscape-font-specification:'sans-serif Bold'"
         id="path17956" />
      <path
         d="m 201.463,162.45 c 0.224,-2.578 0.821,-4.072 1.967,-5.421 1.123,-1.374 2.836,-2.047 5.141,-2.018 l 12.84,-0.169 -0.083,4.324 -2.647,0.925 -0.005,0.141 c 1.003,0.861 1.67,2.063 2.083,3.008 0.412,0.944 0.467,2.879 0.29,4.469 -0.191,1.706 -0.981,3.858 -2.148,4.801 -1.167,0.942 -2.781,1.233 -4.843,0.873 -2.015,-0.351 -3.375,-1.317 -4.078,-2.896 -0.703,-1.578 -0.965,-3.935 -0.834,-6.804 l 0.131,-3.382 -0.844,-0.052 c -1.01,-0.063 -1.766,0.161 -2.269,0.672 -0.501,0.487 -0.771,1.138 -0.853,2.075 -0.081,0.937 -0.017,1.804 0.164,2.724 0.158,0.917 0.383,1.803 0.658,2.743 l -3.754,1.056 c -0.336,-1.085 -0.637,-1.945 -0.8,-3.241 -0.186,-1.298 -0.233,-2.469 -0.115,-3.828 z m 10.877,-1.959 -0.056,2.046 c -0.058,1.693 0.085,3.113 0.573,3.83 0.488,0.717 1.187,1.127 2.099,1.229 0.795,0.088 1.393,-0.081 1.796,-0.51 0.38,-0.43 0.635,-1.259 0.701,-2.008 0.097,-1.125 -0.139,-2.335 -0.748,-3.15 -0.633,-0.817 -1.56,-1.263 -2.78,-1.339 z"
         style="font-weight:bold;-inkscape-font-specification:'sans-serif Bold'"
         id="path17958" />
    </g>
  </g>
</svg>
