<?xml version="1.0" encoding="UTF-8" standalone="no"?>
<!-- Created with Inkscape (http://www.inkscape.org/) -->

<svg
   width="210mm"
   height="297mm"
   viewBox="0 0 210 297"
   version="1.1"
   id="svg5"
   sodipodi:docname="pasieka-logo_wektorowe.svg"
   inkscape:version="1.2 (dc2aedaf03, 2022-05-15)"
   inkscape:export-filename="..\pasieka-logo_wektorowe.png"
   inkscape:export-xdpi="96"
   inkscape:export-ydpi="96"
   xmlns:inkscape="http://www.inkscape.org/namespaces/inkscape"
   xmlns:sodipodi="http://sodipodi.sourceforge.net/DTD/sodipodi-0.dtd"
   xmlns:xlink="http://www.w3.org/1999/xlink"
   xmlns="http://www.w3.org/2000/svg"
   xmlns:svg="http://www.w3.org/2000/svg">
  <sodipodi:namedview
     id="namedview7"
     pagecolor="#ffffff"
     bordercolor="#999999"
     borderopacity="1"
     inkscape:showpageshadow="0"
     inkscape:pageopacity="0"
     inkscape:pagecheckerboard="0"
     inkscape:deskcolor="#d1d1d1"
     inkscape:document-units="mm"
     showgrid="false"
     inkscape:zoom="0.46769781"
     inkscape:cx="44.900787"
     inkscape:cy="628.61102"
     inkscape:window-width="1366"
     inkscape:window-height="705"
     inkscape:window-x="-8"
     inkscape:window-y="-8"
     inkscape:window-maximized="1"
     inkscape:current-layer="layer1" />
  <defs
     id="defs2" />
  <g
     inkscape:label="Warstwa 1"
     inkscape:groupmode="layer"
     id="layer1"
     style="display:inline;fill:#808000">
    <path
       d="m 209.88014,156.70314 a 100.697,100.697 0 0 1 -100.697,100.697 A 100.697,100.697 0 0 1 8.4857129,156.70314 100.697,100.697 0 0 1 109.18314,56.005743 100.697,100.697 0 0 1 209.88014,156.70314 Z"
       style="fill:none;stroke:#e16e01;stroke-width:3;stroke-linecap:square;stroke-linejoin:round;paint-order:markers fill stroke"
       id="path3572" />
    <rect
       style="fill:#00aa44;fill-opacity:1;stroke:none;stroke-width:1.69675;stroke-linecap:square;stroke-linejoin:round;paint-order:markers fill stroke"
       id="rect61"
       width="101.6844"
       height="59.117149"
       x="56.28857"
       y="94.757149" />
    <rect
       style="display:inline;fill:#00aa44;fill-opacity:1;stroke:none;stroke-width:1.60497;stroke-linecap:square;stroke-linejoin:round;paint-order:markers fill stroke"
       id="rect61-7"
       width="101.68439"
       height="52.894283"
       x="56.360661"
       y="156.27856" />
    <rect
       style="fill:#000000;fill-opacity:1;stroke:none;stroke-width:3.74165;stroke-linecap:square;stroke-linejoin:round;stroke-dasharray:none;stroke-opacity:1;paint-order:markers fill stroke"
       id="rect5733"
       width="101.82857"
       height="15.839999"
       x="56.005714"
       y="77.502861" />
    <rect
       style="fill:#000000;fill-opacity:1;stroke:none;stroke-width:3.31302;stroke-linecap:square;stroke-linejoin:round;stroke-dasharray:none;stroke-opacity:1;paint-order:markers fill stroke"
       id="rect7354"
       width="3.3942857"
       height="28.976917"
       x="62.365833"
       y="211.50853" />
    <rect
       style="display:inline;fill:#000000;fill-opacity:1;stroke:none;stroke-width:3.31302;stroke-linecap:square;stroke-linejoin:round;stroke-dasharray:none;stroke-opacity:1;paint-order:markers fill stroke"
       id="rect7354-6"
       width="3.3942857"
       height="28.976917"
       x="147.65143"
       y="211.79726" />
    <text
       xml:space="preserve"
       style="font-style:normal;font-weight:normal;font-size:39.2937px;line-height:1.25;font-family:sans-serif;letter-spacing:1.36017px;fill:#000000;fill-opacity:1;stroke:none;stroke-width:0.265;stroke-dasharray:none"
       id="text9621"
       transform="matrix(-0.72310406,-0.9150416,0.9273329,-0.7103545,46.472279,371.80137)"
       inkscape:transform-center-x="-80.828695"
       inkscape:transform-center-y="51.703497"
       inkscape:export-filename="..\text9621.png"
       inkscape:export-xdpi="96"
       inkscape:export-ydpi="96"><textPath
         xlink:href="#path3572"
         id="textPath11125"
         style="font-style:normal;font-variant:normal;font-weight:bold;font-stretch:normal;font-size:39.2937px;font-family:sans-serif;-inkscape-font-specification:'sans-serif Bold';stroke-width:0.265;stroke-dasharray:none">Pasieka</textPath></text>
    <g
       aria-label="Bzdula"
       transform="scale(-1)"
       id="text22669"
       style="font-size:45.8611px;line-height:1.25;fill:#000000;stroke-width:0.264583">
      <path
         d="m -175.49932,-263.10327 h 10.18117 q 6.51227,0 9.86013,1.83444 3.39372,1.83445 3.39372,6.46642 0,2.79753 -1.32997,4.72369 -1.28411,1.92617 -3.71475,2.33892 v 0.2293 q 1.60514,0.36689 2.93511,1.19239 1.37584,0.77964 2.15548,2.33892 0.77963,1.55928 0.77963,4.1275 0,4.44852 -3.25613,6.97089 -3.21028,2.52236 -8.75947,2.52236 h -12.24492 z m 6.92503,12.97869 h 4.03578 q 3.02683,0 4.17336,-0.91722 1.19238,-0.96308 1.19238,-2.84339 0,-1.8803 -1.37583,-2.7058 -1.37583,-0.8255 -4.3568,-0.8255 h -3.66889 z m 0,5.50333 v 8.53017 h 4.54025 q 3.11855,0 4.3568,-1.19239 1.23825,-1.23825 1.23825,-3.25614 0,-1.83444 -1.28411,-2.93511 -1.23825,-1.14653 -4.54025,-1.14653 z"
         style="font-weight:bold;-inkscape-font-specification:'sans-serif Bold'"
         id="path22685" />
      <path
         d="m -127.80373,-230.35844 h -19.76614 v -4.03578 l 11.60286,-15.77622 h -10.91494 v -5.22816 h 18.66547 v 4.44852 l -11.28183,15.36347 h 11.69458 z"
         style="font-weight:bold;-inkscape-font-specification:'sans-serif Bold'"
         id="path22687" />
      <path
         d="m -114.91672,-229.89983 q -4.17336,0 -6.83331,-3.25614 -2.61408,-3.302 -2.61408,-9.67669 0,-6.42056 2.65994,-9.72256 2.65995,-3.302 6.97089,-3.302 2.7058,0 4.44853,1.05481 1.74272,1.05481 2.75166,2.61408 h 0.22931 q -0.13759,-0.73378 -0.32103,-2.10961 -0.18344,-1.42169 -0.18344,-2.88925 v -8.02569 h 6.8333 v 34.85444 h -5.22817 l -1.32997,-3.25614 h -0.27516 q -1.00895,1.55928 -2.70581,2.65994 -1.69686,1.05481 -4.40266,1.05481 z m 2.38477,-5.45747 q 2.79753,0 3.94406,-1.651 1.14652,-1.69686 1.23825,-5.04472 v -0.73378 q 0,-3.62303 -1.14653,-5.5492 -1.10067,-1.97202 -4.1275,-1.97202 -2.24719,0 -3.5313,1.97202 -1.28411,1.92617 -1.28411,5.59506 0,3.66889 1.28411,5.54919 1.28411,1.83445 3.62302,1.83445 z"
         style="font-weight:bold;-inkscape-font-specification:'sans-serif Bold'"
         id="path22689" />
      <path
         d="m -70.844235,-255.3986 v 25.04016 h -5.228166 l -0.917222,-3.21028 h -0.366889 q -1.192388,1.92617 -3.301999,2.79753 -2.063749,0.87136 -4.402665,0.87136 -4.035777,0 -6.466415,-2.15547 -2.430638,-2.20134 -2.430638,-7.01675 v -16.32655 h 6.833303 v 14.62969 q 0,2.7058 0.963083,4.08163 0.963084,1.32998 3.072694,1.32998 3.118555,0 4.265082,-2.10961 1.146528,-2.15548 1.146528,-6.14539 v -11.7863 z"
         style="font-weight:bold;-inkscape-font-specification:'sans-serif Bold'"
         id="path22691" />
      <path
         d="m -56.85662,-230.35844 h -6.833304 v -34.85444 h 6.833304 z"
         style="font-weight:bold;-inkscape-font-specification:'sans-serif Bold'"
         id="path22693" />
      <path
         d="m -39.42939,-255.90308 q 5.044721,0 7.704665,2.20134 2.705805,2.15547 2.705805,6.64986 v 16.69344 h -4.769555 l -1.329972,-3.39373 h -0.183444 q -1.605138,2.01789 -3.393721,2.93511 -1.788583,0.91723 -4.907138,0.91723 -3.34786,0 -5.549193,-1.92617 -2.201333,-1.92617 -2.201333,-6.0078 0,-3.98992 2.797527,-5.87022 2.797527,-1.88031 8.392582,-2.10961 l 4.356804,-0.13759 v -1.10066 q 0,-1.97203 -1.054805,-2.88925 -1.008944,-0.91723 -2.843388,-0.91723 -1.834444,0 -3.577166,0.55034 -1.742722,0.50447 -3.485444,1.28411 l -2.247194,-4.63197 q 1.972028,-1.00895 4.448527,-1.60514 2.476499,-0.64206 5.136443,-0.64206 z m 3.623027,13.94178 -2.659944,0.0917 q -3.301999,0.0917 -4.58611,1.19239 -1.28411,1.10066 -1.28411,2.88925 0,1.55928 0.917222,2.24719 0.917221,0.64206 2.384777,0.64206 2.201332,0 3.714749,-1.28411 1.513416,-1.32998 1.513416,-3.71475 z"
         style="font-weight:bold;-inkscape-font-specification:'sans-serif Bold'"
         id="path22695" />
    </g>
  </g>
</svg>
