<?xml version="1.0" encoding="UTF-8" standalone="no"?>
<!-- Created with Inkscape (http://www.inkscape.org/) -->

<svg
   width="210mm"
   height="297mm"
   viewBox="0 0 210 297"
   version="1.1"
   id="svg5"
   inkscape:version="1.2 (dc2aedaf03, 2022-05-15)"
   sodipodi:docname="logo_pasieka_bzdula.svg.2022_06_04_11_57_15.0.svg"
   inkscape:export-filename="..\..\..\pasieka_logo.png"
   inkscape:export-xdpi="96"
   inkscape:export-ydpi="96"
   xmlns:inkscape="http://www.inkscape.org/namespaces/inkscape"
   xmlns:sodipodi="http://sodipodi.sourceforge.net/DTD/sodipodi-0.dtd"
   xmlns:xlink="http://www.w3.org/1999/xlink"
   xmlns="http://www.w3.org/2000/svg"
   xmlns:svg="http://www.w3.org/2000/svg">
  <sodipodi:namedview
     id="namedview7"
     pagecolor="#ffffff"
     bordercolor="#999999"
     borderopacity="1"
     inkscape:pageshadow="0"
     inkscape:pageopacity="0"
     inkscape:pagecheckerboard="0"
     inkscape:document-units="mm"
     showgrid="false"
     inkscape:zoom="0.65512531"
     inkscape:cx="361.76285"
     inkscape:cy="567.8303"
     inkscape:window-width="1280"
     inkscape:window-height="961"
     inkscape:window-x="1358"
     inkscape:window-y="-8"
     inkscape:window-maximized="1"
     inkscape:current-layer="layer1"
     inkscape:showpageshadow="0"
     inkscape:deskcolor="#d1d1d1" />
  <defs
     id="defs2">
    <rect
       x="120.88674"
       y="766.33555"
       width="459.80133"
       height="218.02786"
       id="rect9354" />
  </defs>
  <g
     inkscape:label="LOGO"
     inkscape:groupmode="layer"
     id="layer1"
     transform="matrix(1.0552153,0,0,1.036889,-4.3262926,-4.6366281)"
     style="display:inline">
    <rect
       style="display:inline;opacity:0.703704;fill:#ffffff;stroke:#008a37;stroke-width:3.82405;stroke-linecap:square;stroke-linejoin:miter;stroke-dasharray:none;stroke-opacity:1;paint-order:markers fill stroke"
       id="rect867"
       width="195.92575"
       height="285.07892"
       x="5.6478729"
       y="6.4092102"
       inkscape:label="TŁO" />
    <path
       d="M 198.45997,150.746 A 94.889297,94.889297 0 0 0 103.57125,55.856806 94.889297,94.889297 0 0 0 8.6814977,150.746 94.889297,94.889297 0 0 0 103.57125,245.6357 94.889297,94.889297 0 0 0 198.45997,150.746 Z"
       style="fill:none;stroke:#e16e01;stroke-width:3.88283;stroke-linecap:round;stroke-linejoin:round;stroke-opacity:1;paint-order:markers fill stroke"
       id="path19815" />
    <g
       aria-label="Pasieka"
       style="font-size:45.8611px;line-height:1.25;letter-spacing:1.5875px;stroke-width:0.603738"
       id="g4810"
       transform="matrix(0.88049546,-0.5185679,0.53214967,0.8550613,-66.245344,48.983758)">
      <path
         d="m 85.2875,39.6155 c 4.156,-0.7252 8.8539,-0.2156 10.9107,1.4707 2.0849,1.6535 3.6877,4.0908 3.7664,7.2692 0.0474,1.9254 -0.4059,3.7007 -1.0761,5.4059 -0.6701,1.7053 -1.8977,3.1301 -3.6825,4.2745 -1.7543,1.1422 -3.7028,1.9079 -6.8348,2.4543 l -2.6845,0.4842 2.562,11.3623 -5.9268,1.4477 L 73.567,42.235 Z m 0.616,5.6646 -3.6058,0.6638 2.1383,9.4834 2.2804,-0.4206 c 1.9274,-0.3363 3.4319,-0.9555 4.4602,-1.8534 1.0548,-0.932 1.4749,-2.2626 1.2601,-3.9919 -0.3919,-3.1551 -2.9191,-4.5119 -6.533,-3.8813 z"
         style="font-weight:bold;-inkscape-font-specification:'sans-serif Bold'"
         id="path6956" />
      <path
         d="m 118.717,46.6725 c 3.331,0.4661 6.308,1.8258 7.729,3.6369 1.457,1.7878 1.916,4.2087 1.205,7.1195 l -3.957,16.217 -3.81,-0.8723 -0.667,-3.5833 -0.181,-0.0346 c -1.304,1.1198 -1.804,2.0214 -3.069,2.4617 -1.266,0.4403 -2.041,0.5962 -4.112,0.4123 -2.223,-0.1974 -3.153,-0.9048 -4.571,-2.2437 -1.418,-1.3388 -1.76,-3.3403 -1.726,-6.0611 0.034,-2.6597 0.861,-4.6036 2.773,-5.7854 1.911,-1.1817 4.546,-1.7425 8.261,-1.377 l 4.244,0.5175 0.208,-1.0809 c 0.247,-1.2911 0.038,-2.3037 -0.556,-3.0219 -0.564,-0.7132 -1.531,-1.1774 -2.743,-1.3469 -1.211,-0.1695 -2.575,-0.1624 -3.765,0.1002 -1.187,0.2323 -2.432,0.5514 -3.624,0.9967 l -2.105,-4.7494 c 1.339,-0.6222 3.209,-1.0444 4.888,-1.2943 1.683,-0.2803 3.822,-0.2567 5.578,-0.011 z m 1.369,14.3262 -2.36,-0.295 c -2.188,-0.2445 -3.608,-0.0064 -4.542,0.6254 -0.934,0.6318 -1.256,1.5912 -1.362,2.7788 -0.092,1.0354 0.147,1.8086 0.715,2.3195 0.571,0.4804 1.023,0.7607 1.995,0.8718 1.458,0.1667 2.12,-0.1444 3.255,-0.824 1.14,-0.7098 1.611,-1.8883 1.91,-3.4497 z"
         style="font-weight:bold;-inkscape-font-specification:'sans-serif Bold'"
         id="path8874" />
      <path
         d="m 146.998,75.1567 c -1.265,2.1997 -2.388,3.7269 -4.62,4.1291 -2.192,0.3889 -4.098,0.1655 -7.33,-1.2953 -1.588,-0.7179 -2.158,-1.0002 -3.234,-1.6875 -1.088,-0.6588 -1.371,-1.107 -2.392,-2.0011 l 1.807,-5.3429 c 1.079,1.0103 1.752,1.7576 3.057,2.6992 1.304,0.9417 1.943,1.3808 3.03,1.872 1.198,0.5415 2.143,0.7509 2.836,0.628 0.693,-0.1228 0.682,-0.712 0.975,-1.2835 0.195,-0.3809 0.684,-0.5668 0.599,-0.974 -0.056,-0.3946 -0.344,-0.9443 -0.865,-1.6491 -0.52,-0.7049 -1.035,-1.6011 -2.296,-2.8211 -1.232,-1.2088 -2.2,-2.2968 -2.903,-3.2641 -0.663,-0.9845 -0.937,-1.867 -1.106,-2.8925 -0.16,-1.0545 -0.014,-2.2477 0.437,-3.5798 0.744,-2.2008 2.157,-3.5624 4.238,-4.0847 2.081,-0.5223 5.241,0.1577 7.971,1.3919 1.421,0.6423 3.052,1.596 4.164,2.5092 1.112,0.9131 2.468,2.1991 3.416,3.5554 l -4.302,3.2038 c -0.851,-1.02 -1.69,-1.9305 -2.516,-2.7315 -0.813,-0.8282 -1.892,-1.5124 -2.923,-1.9784 -1.839,-0.8312 -3.121,-0.7634 -3.525,0.2604 -0.145,0.3697 -0.166,0.7559 -0.062,1.1584 0.144,0.3853 0.476,0.8988 0.993,1.5353 0.546,0.6491 1.361,1.5545 2.446,2.7161 1.07,1.1212 1.755,2.2293 2.388,3.2745 0.646,1.018 0.762,1.9813 0.767,3.0772 0.031,1.1111 -0.319,2.3027 -1.051,3.5748 z"
         style="font-weight:bold;-inkscape-font-specification:'sans-serif Bold'"
         id="path4170" />
      <path
         d="m 170.79,57.8999 c 0.823,0.5846 2.05,1.7997 2.325,2.6376 0.293,0.8139 0.044,1.7256 -0.75,2.7352 -0.774,0.9855 -1.601,1.4439 -2.48,1.3751 -0.879,-0.0687 -2.152,-0.7071 -2.975,-1.2918 -0.847,-0.6023 -1.427,-1.3154 -1.742,-2.1393 -0.289,-0.8061 -0.608,-2.0454 0.068,-3.1006 0.693,-1.081 2.123,-1.1934 2.962,-1.1597 0.881,0.0266 1.745,0.3411 2.592,0.9435 z m -2.672,10.2583 -15.471,19.6865 -4.182,-3.059 13.513,-21.0782 z"
         style="font-weight:bold;-inkscape-font-specification:'sans-serif Bold'"
         id="path4222" />
      <path
         d="m 183.352,81.9788 c 2.262,2.6111 3.624,5.9725 3.174,8.7684 -0.425,2.7782 -2.12,5.2214 -5.085,7.3297 l -2.691,1.9134 -9.59,-11.8034 c -1.352,1.3733 -2.057,2.8268 -2.115,4.3607 -0.037,1.556 0.146,2.6416 1.407,4.0974 1.041,1.2016 1.655,1.8029 2.708,2.6476 1.096,0.8494 1.965,1.2284 3.328,1.9844 l -4.297,3.056 c -1.225,-0.667 -1.844,-0.828 -2.892,-1.715 -1.071,-0.869 -1.644,-1.427 -2.905,-2.8832 -1.641,-1.8948 -2.244,-3.2174 -2.909,-5.2443 -0.644,-2.0479 -0.273,-3.5715 0.217,-5.6807 0.512,-2.1312 2.035,-3.9896 3.937,-6.1848 1.901,-2.1952 3.872,-3.6886 5.93,-4.4296 2.08,-0.7199 4.332,-0.6596 6.263,-0.0513 1.932,0.6083 3.979,2.0552 5.52,3.8345 z m -3.644,3.2172 c -0.881,-1.0167 -2.025,-1.6711 -3.236,-1.6999 -1.21,-0.0289 -2.52,0.5237 -3.931,1.6577 l 6.157,7.1065 c 1.159,-0.9496 1.889,-2.0486 2.191,-3.2969 0.321,-1.2242 -0.14,-2.5661 -1.181,-3.7677 z"
         style="font-weight:bold;-inkscape-font-specification:'sans-serif Bold'"
         id="path568" />
      <path
         d="m 206.669,100.316 -13.877,7.108 c -0.843,0.432 -1.708,0.823 -2.593,1.173 -0.844,0.364 -1.709,0.721 -2.594,1.071 l 0.042,0.082 c 0.78,0.116 1.511,0.148 2.298,0.329 0.786,0.181 1.572,0.396 2.355,0.646 l 9.772,3.698 2.595,8.069 -13.53,-6.173 -10.393,13.586 -2.115,-6.707 7.122,-9.261 -3.163,-1.288 -6.938,3.554 -2.829,-5.287 30.213,-17.3723 z"
         style="font-weight:bold;-inkscape-font-specification:'sans-serif Bold'"
         id="path7134" />
      <path
         d="m 208.454,139.408 c 0.382,3.341 -0.236,6.572 -1.635,8.399 -1.367,1.857 -3.61,2.907 -6.605,2.945 l -16.692,0.211 -0.107,-4.332 3.33,-1.107 -0.011,-0.183 c -1.411,-0.983 -2.454,-1.641 -3.168,-2.775 -0.715,-1.133 -1.132,-1.843 -1.42,-3.902 -0.309,-2.211 0.187,-2.854 1.13,-4.561 0.943,-1.707 2.806,-2.545 5.449,-3.19 2.584,-0.631 4.68,-0.444 6.262,1.152 1.582,1.596 2.784,4.072 3.36,7.76 l 0.529,4.241 1.098,-0.07 c 1.312,-0.083 2.256,-0.54 2.803,-1.295 0.549,-0.724 0.773,-1.779 0.634,-2.994 -0.139,-1.215 -0.485,-2.454 -1.01,-3.554 -0.494,-1.104 -1.124,-2.29 -1.853,-3.333 l 4.087,-3.226 c 0.937,1.141 1.784,2.848 2.446,4.412 0.692,1.559 1.172,3.64 1.373,5.402 z m -13.56,4.91 -0.299,-2.501 c -0.256,-2.188 -0.854,-3.356 -1.699,-4.102 -0.846,-0.746 -1.839,-0.822 -3.016,-0.627 -1.025,0.17 -1.753,0.306 -2.122,0.975 -0.339,0.665 -0.465,1.163 -0.354,2.135 0.167,1.458 0.686,2.334 1.628,3.264 0.972,0.926 2.216,1.087 3.803,0.987 z"
         style="font-weight:bold;-inkscape-font-specification:'sans-serif Bold'"
         id="path2573" />
    </g>
    <text
       xml:space="preserve"
       id="text9352"
       style="font-style:normal;font-weight:normal;font-size:24.6944px;line-height:2.8;font-family:sans-serif;letter-spacing:-2.38125px;word-spacing:-0.264583px;white-space:pre;display:inline;fill:#000000;fill-opacity:1;stroke:none"
       inkscape:export-filename="..\..\..\logo_ul.png"
       inkscape:export-xdpi="96"
       inkscape:export-ydpi="96"
       transform="rotate(24.632976,55.969755,150.26315)"><textPath
         xlink:href="#path19815"
         id="textPath19943"
         style="font-style:normal;font-variant:normal;font-weight:bold;font-stretch:normal;font-family:sans-serif;-inkscape-font-specification:'sans-serif Bold'" /></text>
    <rect
       style="fill:#00aa44;fill-opacity:1;stroke:none;stroke-width:4.87478;stroke-linecap:round;stroke-linejoin:round;stroke-miterlimit:4;stroke-dasharray:none;stroke-dashoffset:0;stroke-opacity:1;paint-order:markers fill stroke"
       id="rect15992"
       width="88.347275"
       height="62.610664"
       x="60.078392"
       y="139.07513"
       inkscape:export-filename="C:\Users\marek\Desktop\logo_ul.png"
       inkscape:export-xdpi="96"
       inkscape:export-ydpi="96" />
    <rect
       style="fill:#00aa44;fill-opacity:1;stroke:none;stroke-width:4.27026;stroke-linecap:round;stroke-linejoin:round;stroke-miterlimit:4;stroke-dasharray:none;stroke-dashoffset:0;stroke-opacity:1;paint-order:markers fill stroke"
       id="rect15992-6"
       width="87.562805"
       height="48.475327"
       x="60.457947"
       y="88.064224"
       inkscape:export-filename="C:\Users\marek\Desktop\logo_ul.png"
       inkscape:export-xdpi="96"
       inkscape:export-ydpi="96" />
    <rect
       style="fill:#000000;fill-opacity:1;stroke:#000000;stroke-width:1.63036;stroke-linecap:square;stroke-linejoin:round;stroke-miterlimit:4;stroke-dasharray:none;stroke-dashoffset:0;stroke-opacity:1;paint-order:markers fill stroke"
       id="rect15992-6-5"
       width="86.481804"
       height="8.2286625"
       x="61.416927"
       y="73.971535"
       inkscape:export-filename="C:\Users\marek\Desktop\logo_ul.png"
       inkscape:export-xdpi="96"
       inkscape:export-ydpi="96" />
    <rect
       style="fill:none;fill-opacity:1;stroke:#000000;stroke-width:2;stroke-linecap:square;stroke-linejoin:round;stroke-miterlimit:4;stroke-dasharray:none;stroke-dashoffset:0;stroke-opacity:1;paint-order:markers fill stroke"
       id="rect19417"
       width="1.3790691"
       height="28.640074"
       x="64.405602"
       y="204.85733"
       inkscape:export-filename="C:\Users\marek\Desktop\logo_ul.png"
       inkscape:export-xdpi="96"
       inkscape:export-ydpi="96" />
    <rect
       style="fill:none;fill-opacity:1;stroke:#000000;stroke-width:1.78743;stroke-linecap:square;stroke-linejoin:round;stroke-miterlimit:4;stroke-dasharray:none;stroke-dashoffset:0;stroke-opacity:1;paint-order:markers fill stroke"
       id="rect19417-7"
       width="1.5217551"
       height="30.39823"
       x="141.70312"
       y="204.53241"
       inkscape:export-filename="C:\Users\marek\Desktop\logo_ul.png"
       inkscape:export-xdpi="96"
       inkscape:export-ydpi="96" />
    <g
       aria-label="Bzdula"
       style="font-size:45.8611px;line-height:1.25;letter-spacing:1.5875px;stroke-width:0.264583"
       id="g4181"
       transform="matrix(0.73059308,0.68281312,0.68281312,-0.73059308,-76.499988,212.81911)">
      <path
         d="m 101.941,69.5812 8.411,0.197 c 4.324,0.384 6.145,0.0425 8.567,-0.7386 2.452,-0.7753 3.708,-2.6968 4.365,-5.7141 0.397,-1.8223 0.298,-3.455 -0.295,-4.8983 -0.563,-1.4368 -1.593,-2.4177 -3.147,-2.9541 l 0.038,-0.2264 c 1.095,-0.0664 2.139,-0.2753 3.113,-0.6489 0.999,-0.3379 1.909,-0.9329 2.638,-1.838 0.729,-0.9051 1.275,-2.1942 1.64,-3.8671 0.63,-2.8977 -0.249,-5.4923 -2.064,-7.5522 -1.786,-2.0542 -6.218,-3.6684 -9.903,-3.9956 L 101.13,36.8496 Z m 6.439,-12.925 3.897,0.2632 c 2.01,0.1785 3.22,0.6317 3.893,1.3432 0.698,0.746 0.96,1.7397 0.786,2.9811 -0.173,1.2414 -0.752,2.0711 -1.737,2.489 -0.985,0.4179 -1.973,0.5932 -3.952,0.4174 l -3.164,-0.2077 z m 0.209,-5.4992 0.324,-8.5236 5.107,0.3529 c 2.071,0.1839 4.03,0.8452 4.737,1.7468 0.703,0.9319 0.961,2.064 0.775,3.3962 -0.169,1.2112 -0.729,2.1208 -1.678,2.7288 -0.924,0.6426 -2.624,0.7992 -4.817,0.6045 z"
         style="font-weight:bold;-inkscape-font-specification:'sans-serif Bold'"
         id="path1155" />
      <path
         d="m 156.855,49.8122 -21.444,-8.5939 -1.102,3.8821 6.267,18.8831 -9.915,-3.5208 -1.428,5.0286 15.841,6.4173 2.027,-3.9585 -4.343,-18.7793 11.714,5.2941 z"
         style="font-weight:bold;-inkscape-font-specification:'sans-serif Bold'"
         id="path59" />
      <path
         d="m 171.501,58.4053 c -2.267,-1.6122 -5.442,-2.449 -8.106,-1.5787 -2.655,0.9126 -5.521,2.9674 -7.639,6.6512 -2.133,3.7103 -3.096,6.8933 -2.792,9.7033 0.305,2.81 1.303,4.8171 3.645,6.4825 1.47,1.0453 2.498,1.4958 3.846,1.6608 1.347,0.1649 2.357,-0.0762 3.546,-0.4215 l 0.173,0.1498 c -0.389,0.3097 -0.93,0.7711 -1.623,1.3843 -0.713,0.6362 -1.39,1.3241 -2.03,2.0635 l -5.255,6.0657 4.415,4.0464 24.049,-25.2236 -4.432,-4.1134 -3.137,1.5902 -0.209,-0.1808 c 0.172,-1.226 -0.508,-2.9755 -0.944,-4.2513 -0.455,-1.2518 -2.038,-2.9832 -3.508,-4.0285 z m -0.799,6.2431 c 1.466,1.1523 2.583,2.7589 2.44,4.0912 -0.163,1.3554 -0.952,2.8965 -2.367,4.6234 l -0.481,0.5545 c -1.581,1.8255 -3.081,2.9733 -4.499,3.4434 -1.415,0.5132 -2.816,0.2317 -4.403,-1.015 -1.177,-0.9256 -1.648,-2.0676 -1.583,-3.635 0.046,-1.5425 0.778,-3.3103 2.195,-5.3034 1.418,-1.9931 2.838,-3.2524 4.262,-3.7778 1.407,-0.5005 3.21,0.0553 4.436,1.0187 z"
         style="font-weight:bold;-inkscape-font-specification:'sans-serif Bold'"
         id="path6757" />
      <path
         d="m 183.461,110.934 22.285,-11.4132 -2.873,-5.3358 -3.24,0.805 -0.182,-0.3182 c 0.717,-1.329 0.543,-3.3996 0.273,-4.897 -0.253,-1.4716 -1.285,-3.5602 -2.189,-4.8308 -1.559,-2.1925 -3.956,-4.1251 -6.087,-4.5112 -2.154,-0.3673 -4.901,0.0522 -7.327,2.1539 l -12.34,10.6887 3.78,4.7627 11.922,-8.4776 c 1.469,-1.0453 2.764,-1.5721 3.884,-1.5804 1.094,0.0094 2.426,1.0396 3.185,2.2235 1.122,1.7501 1.298,3.3263 0.526,4.7287 -0.797,1.4188 -2.187,3.1413 -4.493,4.467 l -10.217,5.8747 z"
         style="font-weight:bold;-inkscape-font-specification:'sans-serif Bold'"
         id="path6202" />
      <path
         d="m 191.869,141.304 c 0.382,3.341 1.135,5.254 2.669,6.97 1.504,1.748 3.689,2.504 6.684,2.466 l 16.692,0.224 -0.128,-5.639 -3.488,-1.547 -0.012,-0.183 c 1.275,-1.153 2.123,-2.749 2.626,-3.99 0.504,-1.242 0.494,-3.776 0.206,-5.835 -0.309,-2.211 -1.535,-5.199 -3.102,-6.359 -1.567,-1.161 -3.757,-1.754 -6.4,-1.108 -2.584,0.63 -4.182,2.244 -5.062,4.312 -0.88,2.067 -1.016,5.091 -0.744,8.814 l 0.27,4.434 -1.099,0.069 c -1.312,0.084 -2.284,-0.162 -2.955,-0.809 -0.669,-0.616 -1.037,-1.451 -1.176,-2.666 -0.139,-1.215 -0.101,-2.34 0.101,-3.541 0.172,-1.198 0.423,-2.305 0.714,-3.544 l -4.95,-1.184 c -0.377,1.428 -0.714,2.643 -0.836,4.337 -0.153,1.699 -0.211,3.017 -0.01,4.779 z m 14.193,2.306 -0.138,-2.799 c -0.134,-2.198 -0.011,-4.053 0.597,-5.003 0.608,-0.949 1.457,-1.718 2.633,-1.913 1.026,-0.17 1.864,0.296 2.403,0.838 0.508,0.546 0.887,1.618 0.998,2.59 0.166,1.458 -0.102,3.046 -0.866,4.127 -0.793,1.083 -1.981,1.929 -3.568,2.03 z"
         style="font-weight:bold;-inkscape-font-specification:'sans-serif Bold'"
         id="path517" />
      <text
         xml:space="preserve"
         style="font-style:normal;font-weight:normal;font-size:10.5833px;line-height:1.25;font-family:sans-serif;fill:#000000;fill-opacity:1;stroke:none;stroke-width:0.0700042"
         x="225.05956"
         y="53.415295"
         id="text920"
         transform="matrix(0.73059308,0.68281312,0.68281312,-0.73059308,0,0)"><tspan
           sodipodi:role="line"
           id="tspan918"
           style="stroke-width:0.0700042"
           x="225.05956"
           y="53.415295" /></text>
      <text
         xml:space="preserve"
         style="font-style:normal;font-weight:normal;font-size:45.8611px;line-height:1.25;font-family:sans-serif;display:inline;fill:#000000;fill-opacity:1;stroke:none;stroke-width:0.0700042"
         x="172.17751"
         y="161.0647"
         id="text974"
         transform="matrix(0.33658578,0.94165281,0.94165281,-0.33658578,0,0)"><tspan
           sodipodi:role="line"
           id="tspan972"
           style="font-style:normal;font-variant:normal;font-weight:bold;font-stretch:normal;font-size:45.8611px;font-family:sans-serif;-inkscape-font-specification:'sans-serif Bold';stroke-width:0.0700042"
           x="172.17751"
           y="161.0647">ł</tspan></text>
    </g>
  </g>
</svg>
